<svg width="1250" height="142"><rect x="1" y="1" width="24" height="140" rx="2" ry="2" stroke="black" stroke-width="2" fill="white"></rect><rect x="25" y="1" width="24" height="140" rx="2" ry="2" stroke="black" stroke-width="2" fill="white"></rect><rect x="49" y="1" width="24" height="140" rx="2" ry="2" stroke="black" stroke-width="2" fill="white"></rect><rect x="73" y="1" width="24" height="140" rx="2" ry="2" stroke="black" stroke-width="2" fill="white"></rect><rect x="97" y="1" width="24" height="140" rx="2" ry="2" stroke="black" stroke-width="2" fill="white"></rect><rect x="121" y="1" width="24" height="140" rx="2" ry="2" stroke="black" stroke-width="2" fill="white"></rect><rect x="145" y="1" width="24" height="140" rx="2" ry="2" stroke="black" stroke-width="2" fill="white"></rect><rect x="169" y="1" width="24" height="140" rx="2" ry="2" stroke="black" stroke-width="2" fill="white"></rect><rect x="193" y="1" width="24" height="140" rx="2" ry="2" stroke="black" stroke-width="2" fill="white"></rect><rect x="217" y="1" width="24" height="140" rx="2" ry="2" stroke="black" stroke-width="2" fill="white"></rect><rect x="241" y="1" width="24" height="140" rx="2" ry="2" stroke="black" stroke-width="2" fill="white"></rect><rect x="265" y="1" width="24" height="140" rx="2" ry="2" stroke="black" stroke-width="2" fill="white"></rect><rect x="289" y="1" width="24" height="140" rx="2" ry="2" stroke="black" stroke-width="2" fill="white"></rect><rect x="313" y="1" width="24" height="140" rx="2" ry="2" stroke="black" stroke-width="2" fill="white"></rect><rect x="337" y="1" width="24" height="140" rx="2" ry="2" stroke="black" stroke-width="2" fill="white"></rect><rect x="361" y="1" width="24" height="140" rx="2" ry="2" stroke="black" stroke-width="2" fill="white"></rect><rect x="385" y="1" width="24" height="140" rx="2" ry="2" stroke="black" stroke-width="2" fill="white"></rect><rect x="409" y="1" width="24" height="140" rx="2" ry="2" stroke="black" stroke-width="2" fill="white"></rect><rect x="433" y="1" width="24" height="140" rx="2" ry="2" stroke="black" stroke-width="2" fill="white"></rect><rect x="457" y="1" width="24" height="140" rx="2" ry="2" stroke="black" stroke-width="2" fill="white"></rect><rect x="481" y="1" width="24" height="140" rx="2" ry="2" stroke="black" stroke-width="2" fill="white"></rect><rect x="505" y="1" width="24" height="140" rx="2" ry="2" stroke="black" stroke-width="2" fill="white"></rect><rect x="529" y="1" width="24" height="140" rx="2" ry="2" stroke="black" stroke-width="2" fill="white"></rect><rect x="553" y="1" width="24" height="140" rx="2" ry="2" stroke="black" stroke-width="2" fill="white"></rect><rect x="577" y="1" width="24" height="140" rx="2" ry="2" stroke="black" stroke-width="2" fill="white"></rect><rect x="601" y="1" width="24" height="140" rx="2" ry="2" stroke="black" stroke-width="2" fill="white"></rect><rect x="625" y="1" width="24" height="140" rx="2" ry="2" stroke="black" stroke-width="2" fill="white"></rect><rect x="649" y="1" width="24" height="140" rx="2" ry="2" stroke="black" stroke-width="2" fill="white"></rect><rect x="673" y="1" width="24" height="140" rx="2" ry="2" stroke="black" stroke-width="2" fill="white"></rect><rect x="697" y="1" width="24" height="140" rx="2" ry="2" stroke="black" stroke-width="2" fill="white"></rect><rect x="721" y="1" width="24" height="140" rx="2" ry="2" stroke="black" stroke-width="2" fill="white"></rect><rect x="745" y="1" width="24" height="140" rx="2" ry="2" stroke="black" stroke-width="2" fill="white"></rect><rect x="769" y="1" width="24" height="140" rx="2" ry="2" stroke="black" stroke-width="2" fill="white"></rect><rect x="793" y="1" width="24" height="140" rx="2" ry="2" stroke="black" stroke-width="2" fill="white"></rect><rect x="817" y="1" width="24" height="140" rx="2" ry="2" stroke="black" stroke-width="2" fill="white"></rect><rect x="841" y="1" width="24" height="140" rx="2" ry="2" stroke="black" stroke-width="2" fill="white"></rect><rect x="865" y="1" width="24" height="140" rx="2" ry="2" stroke="black" stroke-width="2" fill="white"></rect><rect x="889" y="1" width="24" height="140" rx="2" ry="2" stroke="black" stroke-width="2" fill="white"></rect><rect x="913" y="1" width="24" height="140" rx="2" ry="2" stroke="black" stroke-width="2" fill="white"></rect><rect x="937" y="1" width="24" height="140" rx="2" ry="2" stroke="black" stroke-width="2" fill="white"></rect><rect x="961" y="1" width="24" height="140" rx="2" ry="2" stroke="black" stroke-width="2" fill="white"></rect><rect x="985" y="1" width="24" height="140" rx="2" ry="2" stroke="black" stroke-width="2" fill="white"></rect><rect x="1009" y="1" width="24" height="140" rx="2" ry="2" stroke="black" stroke-width="2" fill="white"></rect><rect x="1033" y="1" width="24" height="140" rx="2" ry="2" stroke="black" stroke-width="2" fill="white"></rect><rect x="1057" y="1" width="24" height="140" rx="2" ry="2" stroke="black" stroke-width="2" fill="white"></rect><rect x="1081" y="1" width="24" height="140" rx="2" ry="2" stroke="black" stroke-width="2" fill="white"></rect><rect x="1105" y="1" width="24" height="140" rx="2" ry="2" stroke="black" stroke-width="2" fill="white"></rect><rect x="1129" y="1" width="24" height="140" rx="2" ry="2" stroke="black" stroke-width="2" fill="white"></rect><rect x="1153" y="1" width="24" height="140" rx="2" ry="2" stroke="black" stroke-width="2" fill="white"></rect><rect x="1177" y="1" width="24" height="140" rx="2" ry="2" stroke="black" stroke-width="2" fill="white"></rect><rect x="1201" y="1" width="24" height="140" rx="2" ry="2" stroke="black" stroke-width="2" fill="white"></rect><rect x="1225" y="1" width="24" height="140" rx="2" ry="2" stroke="black" stroke-width="2" fill="white"></rect><rect x="18" y="1" width="14" height="90" rx="2" ry="2" stroke="black" stroke-width="2" fill="black"></rect><rect x="66" y="1" width="14" height="90" rx="2" ry="2" stroke="black" stroke-width="2" fill="black"></rect><rect x="90" y="1" width="14" height="90" rx="2" ry="2" stroke="black" stroke-width="2" fill="black"></rect><rect x="138" y="1" width="14" height="90" rx="2" ry="2" stroke="black" stroke-width="2" fill="black"></rect><rect x="162" y="1" width="14" height="90" rx="2" ry="2" stroke="black" stroke-width="2" fill="black"></rect><rect x="186" y="1" width="14" height="90" rx="2" ry="2" stroke="black" stroke-width="2" fill="black"></rect><rect x="234" y="1" width="14" height="90" rx="2" ry="2" stroke="black" stroke-width="2" fill="black"></rect><rect x="258" y="1" width="14" height="90" rx="2" ry="2" stroke="black" stroke-width="2" fill="black"></rect><rect x="306" y="1" width="14" height="90" rx="2" ry="2" stroke="black" stroke-width="2" fill="black"></rect><rect x="330" y="1" width="14" height="90" rx="2" ry="2" stroke="black" stroke-width="2" fill="black"></rect><rect x="354" y="1" width="14" height="90" rx="2" ry="2" stroke="black" stroke-width="2" fill="black"></rect><rect x="402" y="1" width="14" height="90" rx="2" ry="2" stroke="black" stroke-width="2" fill="black"></rect><rect x="426" y="1" width="14" height="90" rx="2" ry="2" stroke="black" stroke-width="2" fill="black"></rect><rect x="474" y="1" width="14" height="90" rx="2" ry="2" stroke="black" stroke-width="2" fill="black"></rect><rect x="498" y="1" width="14" height="90" rx="2" ry="2" stroke="black" stroke-width="2" fill="black"></rect><rect x="522" y="1" width="14" height="90" rx="2" ry="2" stroke="black" stroke-width="2" fill="black"></rect><rect x="570" y="1" width="14" height="90" rx="2" ry="2" stroke="black" stroke-width="2" fill="black"></rect><rect x="594" y="1" width="14" height="90" rx="2" ry="2" stroke="black" stroke-width="2" fill="black"></rect><rect x="642" y="1" width="14" height="90" rx="2" ry="2" stroke="black" stroke-width="2" fill="black"></rect><rect x="666" y="1" width="14" height="90" rx="2" ry="2" stroke="black" stroke-width="2" fill="black"></rect><rect x="690" y="1" width="14" height="90" rx="2" ry="2" stroke="black" stroke-width="2" fill="black"></rect><rect x="738" y="1" width="14" height="90" rx="2" ry="2" stroke="black" stroke-width="2" fill="black"></rect><rect x="762" y="1" width="14" height="90" rx="2" ry="2" stroke="black" stroke-width="2" fill="black"></rect><rect x="810" y="1" width="14" height="90" rx="2" ry="2" stroke="black" stroke-width="2" fill="black"></rect><rect x="834" y="1" width="14" height="90" rx="2" ry="2" stroke="black" stroke-width="2" fill="black"></rect><rect x="858" y="1" width="14" height="90" rx="2" ry="2" stroke="black" stroke-width="2" fill="black"></rect><rect x="906" y="1" width="14" height="90" rx="2" ry="2" stroke="black" stroke-width="2" fill="black"></rect><rect x="930" y="1" width="14" height="90" rx="2" ry="2" stroke="black" stroke-width="2" fill="black"></rect><rect x="978" y="1" width="14" height="90" rx="2" ry="2" stroke="black" stroke-width="2" fill="black"></rect><rect x="1002" y="1" width="14" height="90" rx="2" ry="2" stroke="black" stroke-width="2" fill="black"></rect><rect x="1026" y="1" width="14" height="90" rx="2" ry="2" stroke="black" stroke-width="2" fill="black"></rect><rect x="1074" y="1" width="14" height="90" rx="2" ry="2" stroke="black" stroke-width="2" fill="black"></rect><rect x="1098" y="1" width="14" height="90" rx="2" ry="2" stroke="black" stroke-width="2" fill="black"></rect><rect x="1146" y="1" width="14" height="90" rx="2" ry="2" stroke="black" stroke-width="2" fill="black"></rect><rect x="1170" y="1" width="14" height="90" rx="2" ry="2" stroke="black" stroke-width="2" fill="black"></rect><rect x="1194" y="1" width="14" height="90" rx="2" ry="2" stroke="black" stroke-width="2" fill="black"></rect></svg>